# xmcd
#
# Track frame offsets:
#	150
#	14702
#	32715
#	47551
#	68071
#	89693
#	107596
#	126558
#	143541
#	159818
#	176483
#	196840
#	217510
#	233262
#
# Disc length: 3302 seconds
#
# Revision: 7
# Processed by: cddbd v1.5.2PL0 Copyright (c) Steve Scherf et al.
# Submitted via: EZCDAudioConverter 1.3.4.1
#
DISCID=ad0ce40e
DTITLE=Kenny Wayne Shepherd Band - Live On
DYEAR=1999
DGENRE=Blues
TTITLE0=In 2 Deep
TTITLE1=Was
TTITLE2=Them Changes
TTITLE3=Last Goodbye
TTITLE4=Shotgun Blues
TTITLE5=Never Mind
TTITLE6=You Should Know Better
TTITLE7=Every Time It Rains
TTITLE8=Oh Well
TTITLE9=Wild Love
TTITLE10=Losing Kind
TTITLE11=Live On
TTITLE12=Where Was I?
TTITLE13=Electric Lullaby
EXTD=
EXTT0=
EXTT1=
EXTT2=
EXTT3=
EXTT4=
EXTT5=
EXTT6=
EXTT7=
EXTT8=
EXTT9=
EXTT10=
EXTT11=
EXTT12=
EXTT13=
PLAYORDER=
